<?xml version="1.0" encoding="utf-8"?>
<!-- Svg Vector Icons : http://www.onlinewebfonts.com/icon -->
<!DOCTYPE svg PUBLIC "-//W3C//DTD SVG 1.1//EN" "http://www.w3.org/Graphics/SVG/1.1/DTD/svg11.dtd">
<svg version="1.1" xmlns="http://www.w3.org/2000/svg" xmlns:xlink="http://www.w3.org/1999/xlink" x="0px" y="0px" viewBox="0 0 1000 1000" enable-background="new 0 0 1000 1000" xml:space="preserve">
<metadata> Svg Vector Icons : http://www.onlinewebfonts.com/icon </metadata>
<g><path d="M951.5,309.3c-24.7-58.4-60-110.8-105-155.7c-45-45-97.4-80.3-155.7-105C631,23.2,567.5,10.3,502.1,10c-0.7,0-1.4,0-2.1,0c-0.7,0-1.4,0-2.1,0C432.5,10.3,369,23.2,309.3,48.5c-58.4,24.7-110.8,60-155.7,105c-45,45-80.3,97.4-105,155.7C23,369.7,10,433.9,10,500c0,66.1,13,130.3,38.5,190.7c24.7,58.3,60,110.8,105,155.7c45,45,97.4,80.3,155.7,105c59.8,25.3,123.2,38.2,188.6,38.5c0.7,0,1.4,0,2.1,0c0.7,0,1.4,0,2.1,0c65.4-0.3,128.8-13.2,188.6-38.5c58.4-24.7,110.8-60,155.7-105c45-45,80.3-97.4,105-155.7C977,630.3,990,566.2,990,500C990,433.9,977,369.7,951.5,309.3z M181.3,181.3c41.4-41.4,89.6-73.9,143.2-96.6c18.4-7.8,37.2-14.3,56.3-19.5c-23.9,23.9-45.7,55.2-64.8,93.4c-12.2,24.5-23,51-32.2,79.3c-42.4-11.3-81.3-26-115-43.7C173,189.9,177.1,185.6,181.3,181.3z M84.7,324.6c15.1-35.8,34.6-69.1,58.2-99.6c37.8,20.7,81.7,37.8,129.9,50.7c-16.6,62.8-26,132.4-27.5,204.7H49.8C52.1,426.4,63.8,374.1,84.7,324.6z M142.9,775.1c-23.6-30.5-43.1-63.9-58.2-99.6c-21-49.5-32.7-101.8-35-155.7h195.6c1.4,72.3,10.9,141.9,27.5,204.7C224.7,737.3,180.7,754.3,142.9,775.1z M324.6,915.3c-53.7-22.7-101.9-55.2-143.2-96.6c-4.2-4.2-8.4-8.5-12.4-12.9c33.7-17.7,72.6-32.4,115-43.7c9.2,28.3,20,54.8,32.2,79.3c19.1,38.2,40.9,69.5,64.8,93.4C361.8,929.6,343,923,324.6,915.3z M480.3,948.7c-20.2-4-40-14.2-59.2-30.4c-26-22-49.5-53.8-69.9-94.6c-10.9-21.9-20.6-45.6-29-70.8c49.5-10.3,102.9-16.4,158-17.5V948.7z M480.3,696.1c-59,1.2-116.2,7.7-169.3,19.1c-15.9-59.7-24.9-126.2-26.4-195.5h195.6V696.1z M480.3,480.3H284.7c1.4-69.3,10.5-135.8,26.4-195.5c53.1,11.4,110.4,17.9,169.3,19.1V480.3z M480.3,264.6c-55.1-1.2-108.5-7.2-158-17.5c8.4-25.2,18-48.9,29-70.8c20.4-40.8,43.9-72.6,69.9-94.6c19.2-16.2,39-26.4,59.2-30.4V264.6z M675.4,84.7c53.7,22.7,101.9,55.2,143.2,96.6c4.2,4.2,8.3,8.5,12.4,12.9c-33.3,17.4-72.5,32.3-115,43.7c-9.2-28.3-19.9-54.8-32.2-79.3c-19.1-38.2-40.9-69.5-64.8-93.4C638.2,70.4,657,77,675.4,84.7z M519.7,51.3c20.2,4,40,14.2,59.1,30.4c26,22,49.5,53.8,69.9,94.6c10.9,21.8,20.6,45.5,29,70.8c-49.9,10.4-103.6,16.4-158,17.6V51.3z M519.7,303.9c58.9-1.2,115.6-7.6,169.3-19.1c15.9,59.7,24.9,126.2,26.4,195.5H519.7V303.9L519.7,303.9z M519.7,519.7h195.6c-1.4,69.3-10.5,135.8-26.4,195.6c-53.1-11.4-110.4-17.9-169.2-19.1V519.7L519.7,519.7z M578.8,918.4c-19.1,16.2-39,26.4-59.1,30.4V735.5c55.1,1.2,108.5,7.2,158,17.5c-8.4,25.2-18,48.9-29,70.8C628.3,864.6,604.8,896.4,578.8,918.4z M818.7,818.7c-41.4,41.4-89.6,73.9-143.2,96.6c-18.4,7.8-37.2,14.3-56.3,19.5c23.9-23.9,45.7-55.2,64.8-93.4c12.2-24.4,23-51,32.2-79.3c42.4,11.3,81.3,26,115,43.7C827,810.1,822.9,814.4,818.7,818.7z M915.3,675.4c-15.1,35.8-34.6,69.1-58.2,99.6c-37.8-20.7-81.8-37.8-129.9-50.7c16.6-62.8,26.1-132.4,27.5-204.7h195.6C947.9,573.6,936.2,625.9,915.3,675.4z M754.6,480.3c-1.4-72.3-10.9-141.9-27.5-204.7c48.9-13.1,92.4-30.1,129.9-50.7c23.6,30.5,43.1,63.9,58.2,99.6c21,49.5,32.7,101.8,35,155.7H754.6z"/></g>
</svg>